<svg width="112" height="112" viewBox="0 0 112 112" fill="none" xmlns="http://www.w3.org/2000/svg">
<mask id="mask0_1_92" style="mask-type:luminance" maskUnits="userSpaceOnUse" x="0" y="0" width="112" height="112">
<path d="M0 0.330002H111.67V112H0V0.330002Z" fill="white"/>
</mask>
<g mask="url(#mask0_1_92)">
<path d="M43.5256 45.7082C43.5256 49.6422 40.3367 52.8311 36.4029 52.8311C32.4692 52.8311 29.28 49.6422 29.28 45.7082C29.28 41.7745 32.4692 38.5854 36.4029 38.5854C40.3367 38.5854 43.5256 41.7745 43.5256 45.7082Z" stroke="#FEA439" stroke-width="4" stroke-miterlimit="10" stroke-linecap="round" stroke-linejoin="round"/>
<path d="M62.5924 36.7482C62.5924 40.5646 59.4986 43.6582 55.6824 43.6582C51.866 43.6582 48.7725 40.5646 48.7725 36.7482C48.7725 32.9319 51.866 29.8383 55.6824 29.8383C59.4986 29.8383 62.5924 32.9319 62.5924 36.7482Z" stroke="#FEA439" stroke-width="4" stroke-miterlimit="10" stroke-linecap="round" stroke-linejoin="round"/>
<path d="M46.824 87.416C46.824 91.2321 43.7302 94.3259 39.914 94.3259C36.0976 94.3259 33.004 91.2321 33.004 87.416C33.004 83.5996 36.0976 80.506 39.914 80.506C43.7302 80.506 46.824 83.5996 46.824 87.416Z" stroke="#FEA439" stroke-width="4" stroke-miterlimit="10" stroke-linecap="round" stroke-linejoin="round"/>
<path d="M66.9528 93.8781C66.9528 97.6945 63.8589 100.788 60.0426 100.788C56.2264 100.788 53.1328 97.6945 53.1328 93.8781C53.1328 90.062 56.2264 86.9681 60.0426 86.9681C63.8589 86.9681 66.9528 90.062 66.9528 93.8781Z" stroke="#FEA439" stroke-width="4" stroke-miterlimit="10" stroke-linecap="round" stroke-linejoin="round"/>
<path d="M36.8504 67.2733C36.8504 71.8777 33.118 75.6104 28.5134 75.6104C23.9089 75.6104 20.1765 71.8777 20.1765 67.2733C20.1765 62.6689 23.9089 58.9362 28.5134 58.9362C33.118 58.9362 36.8504 62.6689 36.8504 67.2733Z" stroke="#FEA439" stroke-width="4" stroke-miterlimit="10" stroke-linecap="round" stroke-linejoin="round"/>
<path d="M92.3261 34.2591C89.1092 31.4501 85.4603 29.0481 81.479 27.1436L84.5351 38.3843C85.413 38.3071 86.2466 38.8643 86.4861 39.7444L87.2566 42.5791C87.5253 43.5677 86.9417 44.5872 85.953 44.8561L84.6361 45.2142L87.5434 54.4814C96.5652 52.0993 99.5011 40.5248 92.3261 34.2591Z" stroke="#FEA439" stroke-width="4" stroke-miterlimit="10" stroke-linecap="round" stroke-linejoin="round"/>
<path d="M84.2029 38.4457L73.7245 41.2946C72.7358 41.5635 72.1522 42.583 72.4209 43.5716L73.1917 46.4066C73.4604 47.3952 74.48 47.9787 75.4687 47.71L85.9471 44.8611C86.9358 44.5922 87.5194 43.5727 87.2507 42.5841L86.4799 39.7494C86.2112 38.7605 85.1916 38.177 84.2029 38.4457Z" stroke="#FEA439" stroke-width="4" stroke-miterlimit="10" stroke-linecap="round" stroke-linejoin="round"/>
<path d="M73.7502 41.2917L84.2286 38.4429C84.3374 38.4132 84.4464 38.3957 84.5548 38.3861L81.0388 25.4545C80.7227 24.2911 79.5232 23.6045 78.36 23.9208L71.4577 25.7974C70.2945 26.1138 69.6079 27.3132 69.9242 28.4763L73.44 41.4082C73.5384 41.3615 73.6413 41.3214 73.7502 41.2917Z" stroke="#FEA439" stroke-width="4" stroke-miterlimit="10" stroke-linecap="round" stroke-linejoin="round"/>
<path d="M70.1829 2.43795C69.3135 1.57273 67.9242 1.95071 67.6125 3.13676C65.8208 9.95796 61.0724 12.6611 62.6785 18.5687C63.9712 23.3232 68.2068 25.4394 70.5754 26.2715C70.8189 26.0558 71.1126 25.8896 71.4479 25.7984L78.35 23.9218C78.6852 23.8307 79.0228 23.8252 79.3419 23.888C80.9629 21.9713 83.5441 18.0016 82.2514 13.2472C80.6451 7.33962 75.1818 7.4129 70.1829 2.43795Z" stroke="#FEA439" stroke-width="4" stroke-miterlimit="10" stroke-linecap="round" stroke-linejoin="round"/>
<path d="M63.858 108.764C68.0707 108.393 72.3262 107.499 76.5356 106.017C82.8559 103.791 86.6308 98.7131 87.761 93.1333C86.2552 88.6949 85.8009 86.3411 83.8927 78.0774C82.339 76.3079 80.3542 74.8049 77.9297 73.7164C73.1441 71.5676 70.2003 68.7168 70.2003 65.5599C70.2003 62.1649 73.5977 59.1339 79.0126 56.9439L76.7982 47.3541L75.4813 47.7122C74.4926 47.9809 73.473 47.3973 73.2043 46.4086L72.4335 43.5739C72.1942 42.6939 72.6313 41.7911 73.427 41.4132L69.9111 28.4815C69.686 27.6534 69.9707 26.8089 70.5722 26.2756C68.9879 25.719 66.5689 24.5862 64.7532 22.4749C36.3018 19.5506 11.6963 39.797 11.6963 65.5599C11.6963 89.3998 32.3279 107.415 56.2244 108.871" stroke="#FEA439" stroke-width="4" stroke-miterlimit="10" stroke-linecap="round" stroke-linejoin="round"/>
<path d="M93.9916 75.0283L84.639 45.2167L76.7944 47.3496L85.7437 86.1044C87.4203 93.2483 90.1259 100.11 93.7761 106.476L95.2835 109.104C95.8508 110.094 97.0148 110.575 98.1156 110.276C99.2163 109.977 99.976 108.972 99.9644 107.831L99.9333 104.802C99.8493 96.6535 98.5247 89.4781 96.2774 82.3146" stroke="#FEA439" stroke-width="4" stroke-miterlimit="10" stroke-linecap="round" stroke-linejoin="round"/>
</g>
</svg>
