<svg width="104" height="103" viewBox="0 0 104 103" fill="none" xmlns="http://www.w3.org/2000/svg">
<path d="M103.932 57.576C104 57.2739 103.983 56.9593 103.886 56.666C102.697 39.4923 88.4863 26.129 71.2719 25.9971C65.5265 6.73804 45.2563 -4.21724 25.9972 1.5282C6.73796 7.27363 -4.2171 27.5438 1.52812 46.8029C4.55315 56.9429 11.8419 65.264 21.4952 69.5981C18.0811 71.4245 14.9094 73.6718 12.054 76.2869L7.10889 80.8194C4.99167 82.7598 4.84824 86.049 6.78866 88.1662C7.00554 88.4028 7.24387 88.619 7.50061 88.8116L13.0749 92.9923C21.0987 98.9848 30.8401 102.232 40.8544 102.252H45.8151C55.8283 102.231 65.5683 98.9839 73.5911 92.9923L75.5532 91.5208C91.8624 89.3121 104.021 75.3773 104 58.9193C104 58.4651 103.95 58.0249 103.932 57.576ZM94.843 41.5863C97.9805 45.8598 99.8975 50.9056 100.39 56.1841L98.9197 56.919L90.4092 51.246L93.1738 41.5863H94.843ZM83.1155 32.0619C86.393 33.5298 89.3755 35.5826 91.9172 38.1197H91.8669C91.093 38.1204 90.4133 38.6339 90.2012 39.3781L86.953 50.7451L81.384 53.3138L72.8007 47.5922V40.7561L82.4621 33.9962C83.0767 33.5618 83.3408 32.7803 83.1155 32.0619ZM43.9639 40.2569C43.778 40.4088 43.6257 40.5977 43.5167 40.8116C43.4966 40.8735 43.4797 40.9366 43.4664 41.0005L38.8524 36.3865L44.3591 30.8798C45.8237 32.2114 47.3941 33.4217 49.0546 34.4989H49.0511C47.1376 36.2144 45.4305 38.1466 43.9639 40.2569ZM41.6829 44.1169C39.7173 48.0062 38.5497 52.2493 38.2492 56.5967C36.6457 52.0582 34.1504 47.8864 30.9105 44.3267L36.3981 38.8321L41.6829 44.1169ZM45.7752 43.8778L47.1618 44.5711L49.9594 51.5632L42.9881 58.5431L41.65 57.8741C41.82 52.9351 43.2394 48.1195 45.7752 43.8778ZM42.5582 62.1952C43.2255 62.5282 44.0313 62.3971 44.5584 61.8693L52.4172 54.0123L59.2342 56.7388L62.4668 68.052C62.4982 68.1397 62.5379 68.2244 62.5847 68.3051C56.5435 65.5426 49.9776 64.1148 43.3347 64.1192C42.9257 64.1192 42.5183 64.1365 42.1093 64.1469L42.1058 64.1382C41.9671 63.3617 41.8354 62.5782 41.7591 61.7948L42.5582 62.1952ZM60.4648 53.5045L53.3341 50.6515L50.1448 42.6783C49.9871 42.2833 49.6898 41.9601 49.3094 41.7701L47.7494 40.9866C50.7144 37.1277 54.5853 34.0593 59.0193 32.0532C58.794 32.7715 59.0581 33.5532 59.6727 33.9876L69.3341 40.7561V47.5922L60.4648 53.5045ZM71.0674 50.5995L79.2728 56.0819C79.2867 56.1183 79.2832 56.1564 79.3005 56.1928C79.3324 56.2528 79.3684 56.3109 79.408 56.3661L76.6937 65.8524H65.4411L62.6817 56.1928L71.0674 50.5995ZM78.9591 30.5591V30.5678L79.4097 31.9042L71.0674 37.7367L62.7251 31.8955L63.1757 30.5591C68.3336 29.0847 73.8012 29.0847 78.9591 30.5591ZM67.7083 26.16C62.006 26.7498 56.5587 28.828 51.9128 32.1867C50.0963 31.0999 48.3888 29.8409 46.8134 28.4272L60.8722 14.3736C63.9485 17.7824 66.2772 21.7971 67.7083 26.16ZM58.4005 11.9349L44.3608 25.9746C39.453 20.5331 36.5066 13.6062 35.9908 6.29649L35.7897 3.49895C44.1247 3.3358 52.2094 6.35217 58.4005 11.9349ZM32.3335 3.75201L32.5328 6.54261C33.105 14.6858 36.407 22.3979 41.9047 28.4324L36.4015 33.9356L14.4026 11.9349C19.3964 7.42941 25.6575 4.57208 32.3335 3.75201ZM11.9517 14.3858L33.9507 36.3865L28.4613 41.8758C22.4212 36.3802 14.7042 33.0824 6.5577 32.516L3.76536 32.3167C4.58651 25.6405 7.44493 19.3794 11.9517 14.3858ZM3.51404 35.7746L6.31157 35.9739C13.6233 36.4848 20.5543 39.4262 26.0018 44.3301L11.9465 58.3871C6.3653 52.1945 3.35024 44.1098 3.51404 35.7746ZM14.3783 60.8623L28.4613 46.7862C32.9278 51.7629 35.7654 57.9863 36.5939 64.6218C32.8957 65.1637 29.2773 66.153 25.8181 67.5684C21.5906 66.1296 17.6989 63.8483 14.3783 60.8623ZM77.3298 85.8234C77.2574 85.9023 77.1779 85.9742 77.0923 86.0386L71.5094 90.221C64.0876 95.763 55.0776 98.7662 45.8151 98.7852H40.8544C31.5919 98.7662 22.5818 95.763 15.16 90.221L9.58403 86.0386C8.81813 85.4642 8.66278 84.3779 9.23715 83.612C9.30129 83.5264 9.37343 83.4469 9.4523 83.3745L14.3887 78.842C17.9175 75.6258 21.96 73.0235 26.3484 71.1427C26.6117 71.0935 26.8598 70.9839 27.073 70.822C42.4204 64.4831 60.0504 67.6106 72.2807 78.842L77.2241 83.3745C77.9295 84.0215 77.977 85.1178 77.3298 85.8234ZM74.6154 76.2869C71.6116 73.5361 68.2582 71.1934 64.6421 69.319H77.283L81.0962 73.1323L77.9728 79.3721L74.6154 76.2869ZM80.786 86.723C81.4867 85.2159 81.3831 83.4575 80.5104 82.0431L84.2716 74.5189H94.2623L95.0336 76.0615C91.5023 81.0042 86.524 84.7295 80.786 86.723ZM97.1656 72.5828L96.8935 72.0108C96.5984 71.4204 95.9937 71.0486 95.3335 71.0523H83.918L79.9471 67.0814L83.0029 56.3852L88.2461 53.9672L97.8381 60.3614C98.3546 60.7054 99.0157 60.747 99.5714 60.4706L100.478 60.0164C100.326 64.4002 99.1942 68.694 97.1656 72.5828Z" fill="#FEA439"/>
<path d="M63.0455 84.8184H61.0909V86.773C61.0909 87.8524 60.2158 88.7275 59.1364 88.7275C58.057 88.7275 57.1818 87.8524 57.1818 86.773V84.8184H53.2727V86.773C53.2727 87.8524 52.3976 88.7275 51.3182 88.7275C50.2388 88.7275 49.3636 87.8524 49.3636 86.773V84.8184H45.4545V86.773C45.4545 87.8524 44.5794 88.7275 43.5 88.7275C42.4206 88.7275 41.5455 87.8524 41.5455 86.773V84.8184H37.6364V86.773C37.6364 87.8524 36.7612 88.7275 35.6818 88.7275C34.6024 88.7275 33.7273 87.8524 33.7273 86.773V84.8184H29.8182V86.773C29.8182 87.8524 28.943 88.7275 27.8636 88.7275C26.7842 88.7275 25.9091 87.8524 25.9091 86.773V84.8184H23.9545C22.8751 84.8184 22 83.9433 22 82.8639C22 81.7845 22.8751 80.9094 23.9545 80.9094H25.9091V78.9548C25.9091 77.8754 26.7842 77.0003 27.8636 77.0003C28.943 77.0003 29.8182 77.8754 29.8182 78.9548V80.9094H33.7273V78.9548C33.7273 77.8754 34.6024 77.0003 35.6818 77.0003C36.7612 77.0003 37.6364 77.8754 37.6364 78.9548V80.9094H41.5455V78.9548C41.5455 77.8754 42.4206 77.0003 43.5 77.0003C44.5794 77.0003 45.4545 77.8754 45.4545 78.9548V80.9094H49.3636V78.9548C49.3636 77.8754 50.2388 77.0003 51.3182 77.0003C52.3976 77.0003 53.2727 77.8754 53.2727 78.9548V80.9094H57.1818V78.9548C57.1818 77.8754 58.057 77.0003 59.1364 77.0003C60.2158 77.0003 61.0909 77.8754 61.0909 78.9548V80.9094H63.0455C64.1249 80.9094 65 81.7845 65 82.8639C65 83.9433 64.1249 84.8184 63.0455 84.8184Z" fill="#FEA439"/>
</svg>
