<svg width="25" height="25" viewBox="0 0 25 25" fill="none" xmlns="http://www.w3.org/2000/svg">
<path d="M12.5 0.833252C14.0471 0.833252 15.5308 1.44783 16.6248 2.5418C17.7188 3.63576 18.3333 5.11949 18.3333 6.66658C18.3333 8.21368 17.7188 9.69741 16.6248 10.7914C15.5308 11.8853 14.0471 12.4999 12.5 12.4999C10.9529 12.4999 9.46918 11.8853 8.37522 10.7914C7.28126 9.69741 6.66668 8.21368 6.66668 6.66658C6.66668 5.11949 7.28126 3.63576 8.37522 2.5418C9.46918 1.44783 10.9529 0.833252 12.5 0.833252ZM12.5 15.4166C18.9458 15.4166 24.1667 18.027 24.1667 21.2499V24.1666H0.833344V21.2499C0.833344 18.027 6.05418 15.4166 12.5 15.4166Z" fill="#19C1B6"/>
</svg>
