<svg width="105" height="111" viewBox="0 0 105 111" fill="none" xmlns="http://www.w3.org/2000/svg">
<path fill-rule="evenodd" clip-rule="evenodd" d="M35.5238 29.5372C24.8697 40.297 5.34574 47.6566 12.4226 62.2978C20.426 78.8558 43.1253 85.1246 60.446 81.9474C76.1734 79.0626 86.0996 64.5295 87.3701 48.5502C88.6303 32.6989 81.4965 16.0284 66.1282 9.83873C53.1209 4.5999 44.7093 20.2605 35.5238 29.5372Z" stroke="#FAC589" stroke-width="2"/>
<path fill-rule="evenodd" clip-rule="evenodd" d="M28.1925 44.8136C18.4405 54.6624 0.569599 61.3988 7.04728 74.8003C14.373 89.9563 35.1504 95.6944 51.0045 92.7862C65.4002 90.1456 74.4859 76.8431 75.6488 62.2167C76.8024 47.7076 70.2726 32.4486 56.2056 26.783C44.2996 21.9878 36.6002 36.3224 28.1925 44.8136Z" fill="#FEEDDA"/>
</svg>
