<svg width="112" height="102" viewBox="0 0 112 102" fill="none" xmlns="http://www.w3.org/2000/svg">
<path fill-rule="evenodd" clip-rule="evenodd" d="M76.6626 32.3051C63.0305 26.0701 49.5355 10.4321 38.3394 22C25.6776 35.0824 27.588 58.317 36.4447 73.3327C44.4866 86.9672 61.3776 91.2395 76.6626 86.9739C91.825 82.7424 104.888 70.4298 105.403 54.0361C105.838 40.1609 88.4156 37.6806 76.6626 32.3051Z" fill="#C8EFEA"/>
<path fill-rule="evenodd" clip-rule="evenodd" d="M66.7365 20.7289C51.8434 13.9172 37.1001 -3.16744 24.8683 9.47061C11.0352 23.7631 13.1223 49.147 22.7983 65.5517C31.5841 80.4475 50.0376 85.115 66.7365 80.4547C83.3015 75.8319 97.5726 62.3804 98.1351 44.4702C98.6111 29.3114 79.5767 26.6017 66.7365 20.7289Z" stroke="#30E1CB" stroke-width="2"/>
</svg>
