<svg width="130" height="87" viewBox="0 0 130 87" fill="none" xmlns="http://www.w3.org/2000/svg">
<path d="M28.8887 3C43.1104 3 54.7773 14.6955 54.7773 29C54.7773 54.7112 37.2345 76.2733 13.5186 82.3125C19.5665 77.5282 26.5968 70.1168 31.4814 59.2275L33.3779 55H28.7441C14.5421 54.9998 3 43.3241 3 29C3 14.6955 14.6671 3.00012 28.8887 3ZM101.111 3C115.333 3.00012 127 14.6955 127 29C127 54.7113 109.456 76.2735 85.7402 82.3125C91.7881 77.5282 98.819 70.1166 103.704 59.2275L105.601 55H100.967C86.7647 55 75.2227 43.3232 75.2227 29C75.2227 14.6955 86.8896 3 101.111 3Z" stroke="white" stroke-width="6"/>
</svg>
