<svg width="137" height="125" viewBox="0 0 137 125" fill="none" xmlns="http://www.w3.org/2000/svg">
<path fill-rule="evenodd" clip-rule="evenodd" d="M89.9933 29.536C72.365 21.4732 54.9141 1.25093 40.4358 16.21C24.0622 33.1275 26.5326 63.1732 37.9856 82.5908C48.3851 100.222 70.2276 105.747 89.9933 100.231C109.601 94.7589 126.493 78.8369 127.158 57.6374C127.722 39.6947 105.192 36.4873 89.9933 29.536Z" fill="#F1F4E7"/>
<path fill-rule="evenodd" clip-rule="evenodd" d="M86.3336 26.8246C67.0747 18.016 48.0094 -4.07692 32.1919 12.2659C14.3037 30.7483 17.0026 63.5733 29.515 84.7871C40.8764 104.049 64.7395 110.085 86.3336 104.059C107.755 98.0808 126.209 80.686 126.937 57.5255C127.552 37.923 102.938 34.4189 86.3336 26.8246Z" stroke="#FEA439" stroke-width="2"/>
<path d="M56.2738 47.0576C56.3213 49.5528 56.3213 52.0479 56.2738 54.543C56.2738 54.8731 56.3403 55.0576 56.6447 55.2129C56.9775 55.3877 57.4911 55.3974 57.8525 55.3392C58.328 55.2712 58.832 55.1353 59.2409 54.8537C59.4882 54.6887 59.9352 54.3974 59.9352 54.0576C59.9922 51.3877 59.9922 48.7081 59.9352 46.0382C59.9352 45.7469 59.4121 45.5625 59.2219 45.5236C58.794 45.4265 58.2614 45.4848 57.8525 45.6013C57.1772 45.8052 56.2452 46.2032 56.2643 47.0382L56.2738 47.0576Z" fill="#FFB154"/>
<path d="M67.0576 46.3019L66.9529 53.6417C66.9529 53.9718 67.0195 54.1562 67.3238 54.3116C67.6567 54.4863 68.1702 54.496 68.5316 54.4378C69.0071 54.3698 69.5112 54.2339 69.9201 53.9524C70.1579 53.7873 70.6143 53.496 70.6143 53.1562L70.719 45.8164C70.719 45.4863 70.6524 45.3019 70.3481 45.1465C70.0152 44.9718 69.5017 44.9621 69.1403 45.0203C68.6648 45.0883 68.1607 45.2242 67.7518 45.5058C67.514 45.6708 67.0576 45.9621 67.0576 46.3019Z" fill="#FFB154"/>
<path d="M41.1717 68.9714C46.1931 74.8452 53.4683 78.117 60.9909 78.8549C68.5134 79.5928 76.8538 77.3209 83.5679 73.1656C87.4195 70.7772 90.8337 67.7578 93.8104 64.3112C94.457 63.5539 93.2588 63.1267 92.7167 63.1073C91.7371 63.0588 90.71 63.4763 90.0634 64.2238C85.5841 69.4277 79.7163 73.6219 73.1543 75.5442C66.5923 77.4665 59.9733 76.952 53.9248 74.2044C50.4346 72.6219 47.3438 70.3306 44.8236 67.3986C43.9297 66.3598 40.1541 67.7966 41.1622 68.9714H41.1717Z" fill="#FFB154"/>
</svg>
