<svg width="147" height="53" viewBox="0 0 147 53" fill="none" xmlns="http://www.w3.org/2000/svg">
<path d="M3.74773 48.114C11.0891 39.1044 20.0875 31.2378 30.2324 25.4187C34.3366 23.0663 39.1345 21.0568 43.9613 21.1425C48.788 21.2282 52.9404 23.7616 54.742 28.1044C56.5436 32.4473 55.9174 37.1616 54.0965 41.2378C52.2757 45.314 48.3834 49.7806 43.6819 50.6663C38.9803 51.5521 34.3751 48.6663 31.6005 45.2282C28.2092 41.0092 27.5444 35.3806 28.7872 30.2473C31.5041 18.9997 41.9477 12.333 52.1022 8.18063C63.2684 3.61872 75.4654 1.67586 87.5179 2.45682C92.5566 2.78063 98.5202 3.70444 100.823 8.81872C103.125 13.933 101.295 19.133 98.2023 23.2378C96.5163 25.4759 94.4546 27.4663 92.2868 29.2568C90.4563 30.7711 88.1634 32.4568 85.6681 32.5044C83.5775 32.5425 81.3423 31.2759 80.2536 29.533C78.7989 27.2092 79.8875 24.6378 81.5157 22.733C84.7143 18.9997 89.1557 15.9997 93.4333 13.6092C97.711 11.2187 102.287 9.42825 107.027 8.22825C116.604 5.79967 126.797 5.85682 136.325 8.47586C138.743 9.14253 141.094 9.98063 143.397 10.9616C144.273 11.333 145.458 11.0759 146.239 10.5902C146.749 10.2663 147.482 9.43777 146.595 9.04729C125.438 -0.257469 98.8863 4.03777 81.4772 18.9806C79.2517 20.8949 76.766 23.0473 75.7833 25.8854C74.9355 28.3425 75.8026 30.914 77.7872 32.5521C82.72 36.6282 89.5411 34.3902 94.1463 30.9997C98.7515 27.6092 103.848 22.4568 105.399 16.5806C106.835 11.1521 105.062 5.25682 99.8883 2.52348C97.21 1.10444 94.1174 0.618722 91.1307 0.342532C87.7106 0.0187221 84.2615 -0.0574684 80.822 0.0568173C73.7987 0.304436 66.8138 1.36158 60.0505 3.25682C53.2873 5.15206 47.3333 7.54253 41.5623 10.8663C36.1479 13.9902 31.0224 18.1044 27.7853 23.4949C24.7312 28.5806 23.2379 34.8282 24.7794 40.6378C26.186 45.9425 30.3865 50.4187 35.6372 52.1806C47.102 56.0282 58.4994 45.8092 59.6073 34.7616C60.118 29.6663 58.4801 24.514 54.1062 21.5044C49.4624 18.314 43.4025 18.5616 38.1614 19.933C32.1207 21.514 26.7159 24.714 21.629 28.2187C16.1663 31.9806 11.0602 36.2473 6.4357 40.9806C4.22945 43.2378 2.13881 45.5901 0.154142 48.0378C-0.43355 48.7521 0.655125 49.133 1.19464 49.1521C2.10027 49.1902 3.16004 48.8187 3.7381 48.114H3.74773Z" fill="#FEA439"/>
</svg>
